# xmcd
#
# Track frame offsets:
#	150
#	21378
#	47194
#	64076
#	88487
#	103652
#	123346
#	139820
#	153546
#	171908
#	194110
#	209264
#	238575
#	260116
#	282981
#	298614
#	317152
#
# Disc length: 4559 seconds
#
# Revision: 0
# Processed by: cddbd v1.5.2PL0 Copyright (c) Steve Scherf et al.
# Submitted via: audiograbber 1.83.01
#
DISCID=1611cd11
DTITLE=Nujeen mustafa - Flucht in die Freiheit - CD 3
DYEAR=2016
DGENRE=Hörbuch
TTITLE0=3 - 29 - Flucht in die Freihei
TTITLE1=3 - 30 - Flucht in die Freihei
TTITLE2=3 - 31 - Flucht in die Freihei
TTITLE3=3 - 32 - Flucht in die Freihei
TTITLE4=3 - 33 - Flucht in die Freihei
TTITLE5=3 - 34 - Flucht in die Freihei
TTITLE6=3 - 35 - Flucht in die Freihei
TTITLE7=3 -36 - Flucht in die Freihei
TTITLE8=3 - 37 - Flucht in die Freihei
TTITLE9=3 - 38 - Flucht in die Freihei
TTITLE10=3 - 39 - Flucht in die Freihei
TTITLE11=3 - 40 - Flucht in die Freihei12
TTITLE12=3 - 41 - Flucht in die Freihei
TTITLE13=3 - 42 - Flucht in die Freihei14
TTITLE14=3 - 43 - Flucht in die Freihei15
TTITLE15=3 - 44 - Flucht in die Freihei16
TTITLE16=3 - 45 - Flucht in die Freihei7
EXTD=
EXTT0=
EXTT1=
EXTT2=
EXTT3=
EXTT4=
EXTT5=
EXTT6=
EXTT7=
EXTT8=
EXTT9=
EXTT10=
EXTT11=
EXTT12=
EXTT13=
EXTT14=
EXTT15=
EXTT16=
PLAYORDER=
